<mxfile host="Electron" agent="Mozilla/5.0 (Windows NT 10.0; Win64; x64) AppleWebKit/537.36 (KHTML, like Gecko) draw.io/26.0.9 Chrome/128.0.6613.186 Electron/32.2.5 Safari/537.36" version="26.0.9">
  <diagram name="Page-1" id="tR63InaNYFiVMOsuhmDn">
    <mxGraphModel dx="330" dy="192" grid="1" gridSize="10" guides="1" tooltips="1" connect="1" arrows="1" fold="1" page="1" pageScale="1" pageWidth="1169" pageHeight="827" math="0" shadow="0">
      <root>
        <mxCell id="0" />
        <mxCell id="1" parent="0" />
        <mxCell id="rWJCEb7v9fvlIWdh5QGD-1" value="" style="rounded=0;whiteSpace=wrap;html=1;fillColor=#ffe6cc;strokeColor=#000000;" vertex="1" parent="1">
          <mxGeometry x="480" y="480" width="160" height="280" as="geometry" />
        </mxCell>
        <mxCell id="rWJCEb7v9fvlIWdh5QGD-2" value="&lt;div&gt;NXP&lt;/div&gt;FRDM-MCXN947" style="text;html=1;align=center;verticalAlign=middle;whiteSpace=wrap;rounded=0;" vertex="1" parent="1">
          <mxGeometry x="480" y="680" width="160" height="40" as="geometry" />
        </mxCell>
        <mxCell id="rWJCEb7v9fvlIWdh5QGD-3" value="Vcc" style="text;html=1;align=center;verticalAlign=middle;whiteSpace=wrap;rounded=0;strokeColor=#000000;fillColor=#fff2cc;" vertex="1" parent="1">
          <mxGeometry x="490" y="490" width="60" height="30" as="geometry" />
        </mxCell>
        <mxCell id="rWJCEb7v9fvlIWdh5QGD-4" value="GND" style="text;html=1;align=center;verticalAlign=middle;whiteSpace=wrap;rounded=0;strokeColor=#000000;fillColor=#fff2cc;" vertex="1" parent="1">
          <mxGeometry x="550" y="490" width="60" height="30" as="geometry" />
        </mxCell>
        <mxCell id="rWJCEb7v9fvlIWdh5QGD-7" value="" style="ellipse;whiteSpace=wrap;html=1;aspect=fixed;" vertex="1" parent="1">
          <mxGeometry x="480" y="280" width="80" height="80" as="geometry" />
        </mxCell>
        <mxCell id="rWJCEb7v9fvlIWdh5QGD-8" value="Ampermeter" style="text;html=1;align=center;verticalAlign=middle;whiteSpace=wrap;rounded=0;" vertex="1" parent="1">
          <mxGeometry x="490" y="305" width="60" height="30" as="geometry" />
        </mxCell>
        <mxCell id="rWJCEb7v9fvlIWdh5QGD-10" value="" style="endArrow=classic;html=1;rounded=0;exitX=0.5;exitY=1;exitDx=0;exitDy=0;entryX=0.5;entryY=0;entryDx=0;entryDy=0;strokeColor=#009900;" edge="1" parent="1" source="rWJCEb7v9fvlIWdh5QGD-7" target="rWJCEb7v9fvlIWdh5QGD-3">
          <mxGeometry width="50" height="50" relative="1" as="geometry">
            <mxPoint x="480" y="570" as="sourcePoint" />
            <mxPoint x="530" y="520" as="targetPoint" />
          </mxGeometry>
        </mxCell>
        <mxCell id="rWJCEb7v9fvlIWdh5QGD-11" value="" style="endArrow=classic;html=1;rounded=0;exitX=0.5;exitY=0;exitDx=0;exitDy=0;strokeColor=#009900;entryX=1;entryY=0.5;entryDx=0;entryDy=0;" edge="1" parent="1" source="rWJCEb7v9fvlIWdh5QGD-4" target="rWJCEb7v9fvlIWdh5QGD-12">
          <mxGeometry width="50" height="50" relative="1" as="geometry">
            <mxPoint x="780" y="300" as="sourcePoint" />
            <mxPoint x="640" y="120" as="targetPoint" />
            <Array as="points">
              <mxPoint x="580" y="240" />
              <mxPoint x="640" y="240" />
              <mxPoint x="640" y="130" />
            </Array>
          </mxGeometry>
        </mxCell>
        <mxCell id="rWJCEb7v9fvlIWdh5QGD-12" value="" style="rounded=0;whiteSpace=wrap;html=1;fillColor=#f5f5f5;fontColor=#333333;strokeColor=#000000;" vertex="1" parent="1">
          <mxGeometry x="480" y="100" width="120" height="60" as="geometry" />
        </mxCell>
        <mxCell id="rWJCEb7v9fvlIWdh5QGD-13" value="" style="rounded=0;whiteSpace=wrap;html=1;" vertex="1" parent="1">
          <mxGeometry x="470" y="110" width="10" height="40" as="geometry" />
        </mxCell>
        <mxCell id="rWJCEb7v9fvlIWdh5QGD-14" value="" style="rounded=0;whiteSpace=wrap;html=1;fillColor=#fff2cc;strokeColor=#000000;" vertex="1" parent="1">
          <mxGeometry x="480" y="100" width="50" height="60" as="geometry" />
        </mxCell>
        <mxCell id="rWJCEb7v9fvlIWdh5QGD-15" value="" style="endArrow=classic;html=1;rounded=0;exitX=0;exitY=0.5;exitDx=0;exitDy=0;entryX=0.5;entryY=0;entryDx=0;entryDy=0;strokeColor=#009900;" edge="1" parent="1" source="rWJCEb7v9fvlIWdh5QGD-13" target="rWJCEb7v9fvlIWdh5QGD-7">
          <mxGeometry width="50" height="50" relative="1" as="geometry">
            <mxPoint x="370" y="205" as="sourcePoint" />
            <mxPoint x="370" y="335" as="targetPoint" />
            <Array as="points">
              <mxPoint x="440" y="130" />
              <mxPoint x="440" y="240" />
              <mxPoint x="520" y="240" />
            </Array>
          </mxGeometry>
        </mxCell>
        <mxCell id="rWJCEb7v9fvlIWdh5QGD-16" value="&lt;font style=&quot;font-size: 17px;&quot;&gt;&lt;b&gt;+&lt;/b&gt;&lt;/font&gt;" style="text;html=1;align=center;verticalAlign=middle;whiteSpace=wrap;rounded=0;" vertex="1" parent="1">
          <mxGeometry x="480" y="115" width="30" height="30" as="geometry" />
        </mxCell>
        <mxCell id="rWJCEb7v9fvlIWdh5QGD-17" value="&lt;font style=&quot;font-size: 17px;&quot;&gt;&lt;b&gt;-&lt;/b&gt;&lt;/font&gt;" style="text;html=1;align=center;verticalAlign=middle;whiteSpace=wrap;rounded=0;" vertex="1" parent="1">
          <mxGeometry x="570" y="115" width="30" height="30" as="geometry" />
        </mxCell>
        <mxCell id="rWJCEb7v9fvlIWdh5QGD-19" value="MCU" style="text;html=1;align=center;verticalAlign=middle;whiteSpace=wrap;rounded=0;strokeColor=#000000;fillColor=#FFCE9F;" vertex="1" parent="1">
          <mxGeometry x="490" y="560" width="80" height="30" as="geometry" />
        </mxCell>
        <mxCell id="rWJCEb7v9fvlIWdh5QGD-20" value="Peripherals" style="text;html=1;align=center;verticalAlign=middle;whiteSpace=wrap;rounded=0;strokeColor=#000000;fillColor=#FFCE9F;" vertex="1" parent="1">
          <mxGeometry x="490" y="610" width="80" height="30" as="geometry" />
        </mxCell>
        <mxCell id="rWJCEb7v9fvlIWdh5QGD-21" value="" style="endArrow=classic;html=1;rounded=0;entryX=0.375;entryY=0.005;entryDx=0;entryDy=0;strokeColor=#009900;entryPerimeter=0;" edge="1" parent="1" target="rWJCEb7v9fvlIWdh5QGD-19">
          <mxGeometry width="50" height="50" relative="1" as="geometry">
            <mxPoint x="520" y="520" as="sourcePoint" />
            <mxPoint x="410" y="590" as="targetPoint" />
          </mxGeometry>
        </mxCell>
        <mxCell id="rWJCEb7v9fvlIWdh5QGD-22" value="" style="endArrow=classic;html=1;rounded=0;entryX=0.372;entryY=0.05;entryDx=0;entryDy=0;strokeColor=#009900;entryPerimeter=0;" edge="1" parent="1" target="rWJCEb7v9fvlIWdh5QGD-20">
          <mxGeometry width="50" height="50" relative="1" as="geometry">
            <mxPoint x="519.9" y="590" as="sourcePoint" />
            <mxPoint x="519.9" y="630" as="targetPoint" />
          </mxGeometry>
        </mxCell>
        <mxCell id="rWJCEb7v9fvlIWdh5QGD-23" value="" style="endArrow=classic;html=1;rounded=0;entryX=0.5;entryY=1;entryDx=0;entryDy=0;strokeColor=#009900;" edge="1" parent="1" target="rWJCEb7v9fvlIWdh5QGD-4">
          <mxGeometry width="50" height="50" relative="1" as="geometry">
            <mxPoint x="519.89" y="640" as="sourcePoint" />
            <mxPoint x="519.99" y="662" as="targetPoint" />
            <Array as="points">
              <mxPoint x="520" y="660" />
              <mxPoint x="580" y="660" />
            </Array>
          </mxGeometry>
        </mxCell>
      </root>
    </mxGraphModel>
  </diagram>
</mxfile>
